<svg version="1.1" viewBox="0.0 0.0 250.0 250.0" fill="none" stroke="none" stroke-linecap="square" stroke-miterlimit="10" xmlns:xlink="http://www.w3.org/1999/xlink" xmlns="http://www.w3.org/2000/svg"><clipPath id="p.0"><path d="m0 0l250.0 0l0 250.0l-250.0 0l0 -250.0z" clip-rule="nonzero"/></clipPath><g clip-path="url(#p.0)"><path fill="#000000" fill-opacity="0.0" d="m0 0l250.0 0l0 250.0l-250.0 0z" fill-rule="evenodd"/><g filter="url(#shadowFilter-p.1)"><use xlink:href="#p.1" transform="matrix(1.0 0.0 0.0 1.0 0.0 2.0)"/></g><defs><filter id="shadowFilter-p.1" filterUnits="userSpaceOnUse"><feGaussianBlur in="SourceAlpha" stdDeviation="2.0" result="blur"/><feComponentTransfer in="blur" color-interpolation-filters="sRGB"><feFuncR type="linear" slope="0" intercept="0.0"/><feFuncG type="linear" slope="0" intercept="0.0"/><feFuncB type="linear" slope="0" intercept="0.0"/><feFuncA type="linear" slope="0.5" intercept="0"/></feComponentTransfer></filter></defs><g id="p.1"><path fill="#ffffff" d="m30.13795 243.98105l0 -119.59055l0 0c0 -66.048035 42.45892 -119.59055 94.83464 -119.59055c52.375732 0 94.83464 53.542515 94.83464 119.59055l0 119.59055z" fill-rule="evenodd"/><path stroke="#434343" stroke-width="3.0" stroke-linejoin="round" stroke-linecap="butt" d="m30.13795 243.98105l0 -119.59055l0 0c0 -66.048035 42.45892 -119.59055 94.83464 -119.59055c52.375732 0 94.83464 53.542515 94.83464 119.59055l0 119.59055z" fill-rule="evenodd"/></g></g></svg>
