<svg version="1.1" viewBox="0.0 0.0 250.0 250.0" fill="none" stroke="none" stroke-linecap="square" stroke-miterlimit="10" xmlns:xlink="http://www.w3.org/1999/xlink" xmlns="http://www.w3.org/2000/svg"><clipPath id="p.0"><path d="m0 0l250.0 0l0 250.0l-250.0 0l0 -250.0z" clip-rule="nonzero"/></clipPath><g clip-path="url(#p.0)"><path fill="#000000" fill-opacity="0.0" d="m0 0l250.0 0l0 250.0l-250.0 0z" fill-rule="evenodd"/><g filter="url(#shadowFilter-p.1)"><use xlink:href="#p.1" transform="matrix(1.0 0.0 0.0 1.0 0.0 2.0)"/></g><defs><filter id="shadowFilter-p.1" filterUnits="userSpaceOnUse"><feGaussianBlur in="SourceAlpha" stdDeviation="2.0" result="blur"/><feComponentTransfer in="blur" color-interpolation-filters="sRGB"><feFuncR type="linear" slope="0" intercept="0.0"/><feFuncG type="linear" slope="0" intercept="0.0"/><feFuncB type="linear" slope="0" intercept="0.0"/><feFuncA type="linear" slope="0.5" intercept="0"/></feComponentTransfer></filter></defs><g id="p.1"><path fill="#ffffff" d="m31.399502 242.67033l0 -127.72423l5.874813 -23.244919l10.472942 -20.179733l21.205372 -21.203766l57.478363 -44.189217l58.758507 45.213253l21.713974 22.732899l10.728973 21.712326l4.5981293 20.947754l0 125.93563l-8.175613 -6.130371l-10.472931 -4.8537903l-31.166275 -6.642395l-47.005417 -3.0651855l-48.282097 3.3211975l-31.678322 6.898407l-7.6635513 4.5977783z" fill-rule="evenodd"/><path stroke="#434343" stroke-width="3.0" stroke-linejoin="round" stroke-linecap="butt" d="m31.399502 242.67033l0 -127.72423l5.874813 -23.244919l10.472942 -20.179733l21.205372 -21.203766l57.478363 -44.189217l58.758507 45.213253l21.713974 22.732899l10.728973 21.712326l4.5981293 20.947754l0 125.93563l-8.175613 -6.130371l-10.472931 -4.8537903l-31.166275 -6.642395l-47.005417 -3.0651855l-48.282097 3.3211975l-31.678322 6.898407l-7.6635513 4.5977783z" fill-rule="evenodd"/></g></g></svg>