<?xml version="1.0" encoding="UTF-8"?>
<svg xmlns="http://www.w3.org/2000/svg" xmlns:xlink="http://www.w3.org/1999/xlink" width="30pt" height="30pt" viewBox="0 0 30 30" version="1.1">
<g id="surface536">
<path style=" stroke:none;fill-rule:nonzero;fill:rgb(74.509805%,74.509805%,74.509805%);fill-opacity:1;" d="M 1.363281 28.636719 L 1.5 25.898438 L 1.636719 24.761719 L 1.773438 23.886719 L 1.914062 23.148438 L 2.050781 22.511719 L 2.1875 21.925781 L 2.324219 21.386719 L 2.460938 20.886719 L 2.601562 20.414062 L 2.738281 19.960938 L 2.875 19.550781 L 3.011719 19.136719 L 3.148438 18.75 L 3.289062 18.375 L 3.425781 18.023438 L 3.5625 17.675781 L 3.699219 17.335938 L 3.835938 17.011719 L 3.976562 16.6875 L 4.113281 16.375 L 4.25 16.074219 L 4.398438 15.773438 L 4.539062 15.488281 L 4.675781 15.210938 L 4.949219 14.664062 L 5.085938 14.386719 L 5.226562 14.136719 L 5.363281 13.875 L 5.773438 13.125 L 5.914062 12.886719 L 6.050781 12.648438 L 6.1875 12.425781 L 6.324219 12.1875 L 6.460938 11.960938 L 6.601562 11.738281 L 6.738281 11.511719 L 6.875 11.300781 L 7.011719 11.085938 L 7.148438 10.875 L 7.289062 10.664062 L 7.425781 10.449219 L 7.835938 9.851562 L 7.976562 9.648438 L 8.25 9.25 L 8.523438 8.875 L 8.664062 8.6875 L 9.210938 7.9375 L 9.351562 7.761719 L 9.488281 7.585938 L 9.625 7.398438 L 9.761719 7.226562 L 9.898438 7.050781 L 10.039062 6.875 L 10.175781 6.710938 L 10.3125 6.539062 L 10.449219 6.363281 L 10.585938 6.199219 L 10.726562 6.039062 L 10.863281 5.863281 L 11 5.699219 L 11.136719 5.539062 L 11.273438 5.375 L 11.414062 5.210938 L 11.5625 5.0625 L 11.699219 4.898438 L 11.835938 4.738281 L 11.976562 4.585938 L 12.113281 4.425781 L 12.25 4.273438 L 12.386719 4.125 L 12.523438 3.960938 L 12.664062 3.8125 L 12.800781 3.664062 L 12.9375 3.511719 L 13.074219 3.363281 L 13.210938 3.210938 L 13.351562 3.074219 L 13.488281 2.925781 L 13.625 2.773438 L 13.761719 2.636719 L 13.898438 2.488281 L 14.039062 2.351562 L 14.175781 2.199219 L 14.449219 1.925781 L 14.585938 1.773438 L 14.726562 1.636719 L 15 1.363281 L 15.273438 1.636719 L 15.414062 1.773438 L 15.550781 1.925781 L 15.824219 2.199219 L 15.960938 2.351562 L 16.101562 2.488281 L 16.238281 2.636719 L 16.375 2.773438 L 16.511719 2.925781 L 16.648438 3.074219 L 16.789062 3.210938 L 16.925781 3.363281 L 17.0625 3.511719 L 17.199219 3.664062 L 17.335938 3.8125 L 17.476562 3.960938 L 17.613281 4.125 L 17.75 4.273438 L 17.886719 4.425781 L 18.023438 4.585938 L 18.164062 4.738281 L 18.300781 4.898438 L 18.4375 5.0625 L 18.585938 5.210938 L 18.726562 5.375 L 18.863281 5.539062 L 19 5.699219 L 19.136719 5.863281 L 19.273438 6.039062 L 19.414062 6.199219 L 19.550781 6.363281 L 19.6875 6.539062 L 19.824219 6.710938 L 19.960938 6.875 L 20.101562 7.050781 L 20.238281 7.226562 L 20.375 7.398438 L 20.511719 7.585938 L 20.648438 7.761719 L 20.789062 7.9375 L 21.335938 8.6875 L 21.476562 8.875 L 21.75 9.25 L 22.023438 9.648438 L 22.164062 9.851562 L 22.574219 10.449219 L 22.710938 10.664062 L 22.851562 10.875 L 22.988281 11.085938 L 23.125 11.300781 L 23.261719 11.511719 L 23.398438 11.738281 L 23.539062 11.960938 L 23.675781 12.1875 L 23.8125 12.425781 L 23.949219 12.648438 L 24.085938 12.886719 L 24.226562 13.125 L 24.636719 13.875 L 24.773438 14.136719 L 24.914062 14.386719 L 25.050781 14.664062 L 25.324219 15.210938 L 25.460938 15.488281 L 25.601562 15.773438 L 25.75 16.074219 L 25.886719 16.375 L 26.023438 16.6875 L 26.164062 17.011719 L 26.300781 17.335938 L 26.4375 17.675781 L 26.574219 18.023438 L 26.710938 18.375 L 26.851562 18.75 L 26.988281 19.136719 L 27.125 19.550781 L 27.261719 19.960938 L 27.398438 20.414062 L 27.539062 20.886719 L 27.675781 21.386719 L 27.8125 21.925781 L 27.949219 22.511719 L 28.085938 23.148438 L 28.226562 23.886719 L 28.363281 24.761719 L 28.5 25.898438 L 28.636719 28.636719 L 28.5 27.949219 L 28.363281 27.664062 L 28.226562 27.449219 L 28.085938 27.261719 L 27.949219 27.101562 L 27.8125 26.960938 L 27.675781 26.824219 L 27.539062 26.699219 L 27.398438 26.574219 L 27.261719 26.476562 L 27.125 26.363281 L 26.988281 26.261719 L 26.851562 26.164062 L 26.710938 26.074219 L 26.574219 25.988281 L 26.4375 25.898438 L 26.164062 25.726562 L 26.023438 25.648438 L 25.75 25.5 L 25.601562 25.425781 L 25.460938 25.351562 L 25.324219 25.273438 L 25.1875 25.210938 L 25.050781 25.136719 L 24.914062 25.074219 L 24.773438 25.011719 L 24.226562 24.761719 L 24.085938 24.699219 L 23.949219 24.636719 L 23.8125 24.585938 L 23.539062 24.460938 L 23.398438 24.414062 L 23.261719 24.363281 L 23.125 24.300781 L 22.851562 24.199219 L 22.710938 24.136719 L 22.574219 24.085938 L 22.4375 24.039062 L 22.164062 23.9375 L 22.023438 23.886719 L 21.886719 23.835938 L 21.75 23.789062 L 21.613281 23.738281 L 21.476562 23.699219 L 21.335938 23.648438 L 21.199219 23.601562 L 21.0625 23.550781 L 20.925781 23.511719 L 20.789062 23.460938 L 20.648438 23.414062 L 20.511719 23.375 L 20.375 23.324219 L 20.238281 23.289062 L 20.101562 23.238281 L 19.960938 23.199219 L 19.824219 23.148438 L 19.6875 23.113281 L 19.550781 23.074219 L 19.414062 23.023438 L 19.273438 22.988281 L 19.136719 22.949219 L 19 22.898438 L 18.863281 22.863281 L 18.726562 22.824219 L 18.585938 22.789062 L 18.4375 22.738281 L 18.300781 22.699219 L 18.164062 22.664062 L 18.023438 22.625 L 17.886719 22.585938 L 17.75 22.550781 L 17.613281 22.511719 L 17.476562 22.476562 L 17.335938 22.425781 L 17.199219 22.386719 L 17.0625 22.351562 L 16.925781 22.3125 L 16.789062 22.289062 L 16.648438 22.25 L 16.511719 22.210938 L 16.375 22.175781 L 16.238281 22.136719 L 16.101562 22.101562 L 15.960938 22.0625 L 15.824219 22.023438 L 15.6875 21.988281 L 15.550781 21.960938 L 15.414062 21.925781 L 15.273438 21.886719 L 15.136719 21.851562 L 15 21.8125 L 14.863281 21.851562 L 14.726562 21.886719 L 14.585938 21.925781 L 14.449219 21.960938 L 14.3125 21.988281 L 14.175781 22.023438 L 14.039062 22.0625 L 13.898438 22.101562 L 13.761719 22.136719 L 13.625 22.175781 L 13.488281 22.210938 L 13.351562 22.25 L 13.210938 22.289062 L 13.074219 22.3125 L 12.9375 22.351562 L 12.800781 22.386719 L 12.664062 22.425781 L 12.523438 22.476562 L 12.386719 22.511719 L 12.25 22.550781 L 12.113281 22.585938 L 11.976562 22.625 L 11.835938 22.664062 L 11.699219 22.699219 L 11.5625 22.738281 L 11.414062 22.789062 L 11.273438 22.824219 L 11.136719 22.863281 L 11 22.898438 L 10.863281 22.949219 L 10.726562 22.988281 L 10.585938 23.023438 L 10.449219 23.074219 L 10.3125 23.113281 L 10.175781 23.148438 L 10.039062 23.199219 L 9.898438 23.238281 L 9.761719 23.289062 L 9.625 23.324219 L 9.488281 23.375 L 9.351562 23.414062 L 9.210938 23.460938 L 9.074219 23.511719 L 8.9375 23.550781 L 8.800781 23.601562 L 8.664062 23.648438 L 8.523438 23.699219 L 8.386719 23.738281 L 8.25 23.789062 L 8.113281 23.835938 L 7.976562 23.886719 L 7.835938 23.9375 L 7.5625 24.039062 L 7.425781 24.085938 L 7.289062 24.136719 L 7.148438 24.199219 L 6.875 24.300781 L 6.738281 24.363281 L 6.601562 24.414062 L 6.460938 24.460938 L 6.1875 24.585938 L 6.050781 24.636719 L 5.914062 24.699219 L 5.773438 24.761719 L 5.226562 25.011719 L 5.085938 25.074219 L 4.949219 25.136719 L 4.8125 25.210938 L 4.675781 25.273438 L 4.539062 25.351562 L 4.398438 25.425781 L 4.25 25.5 L 3.976562 25.648438 L 3.835938 25.726562 L 3.5625 25.898438 L 3.425781 25.988281 L 3.289062 26.074219 L 3.148438 26.164062 L 3.011719 26.261719 L 2.875 26.363281 L 2.738281 26.476562 L 2.601562 26.574219 L 2.460938 26.699219 L 2.324219 26.824219 L 2.1875 26.960938 L 2.050781 27.101562 L 1.914062 27.261719 L 1.773438 27.449219 L 1.636719 27.664062 L 1.5 27.949219 Z M 1.363281 28.636719 "/>
<path style="fill:none;stroke-width:2.13;stroke-linecap:round;stroke-linejoin:round;stroke:rgb(0%,0%,0%);stroke-opacity:1;stroke-miterlimit:10;" d="M 1.090625 22.909375 L 1.2 20.71875 L 1.309375 19.809375 L 1.41875 19.109375 L 1.53125 18.51875 L 1.640625 18.009375 L 1.75 17.540625 L 1.859375 17.109375 L 1.96875 16.709375 L 2.08125 16.33125 L 2.190625 15.96875 L 2.3 15.640625 L 2.409375 15.309375 L 2.51875 15 L 2.63125 14.7 L 2.740625 14.41875 L 2.85 14.140625 L 2.959375 13.86875 L 3.06875 13.609375 L 3.18125 13.35 L 3.290625 13.1 L 3.4 12.859375 L 3.51875 12.61875 L 3.63125 12.390625 L 3.740625 12.16875 L 3.959375 11.73125 L 4.06875 11.509375 L 4.18125 11.309375 L 4.290625 11.1 L 4.61875 10.5 L 4.73125 10.309375 L 4.840625 10.11875 L 4.95 9.940625 L 5.059375 9.75 L 5.16875 9.56875 L 5.28125 9.390625 L 5.390625 9.209375 L 5.5 9.040625 L 5.609375 8.86875 L 5.71875 8.7 L 5.83125 8.53125 L 5.940625 8.359375 L 6.26875 7.88125 L 6.38125 7.71875 L 6.6 7.4 L 6.81875 7.1 L 6.93125 6.95 L 7.36875 6.35 L 7.48125 6.209375 L 7.590625 6.06875 L 7.7 5.91875 L 7.809375 5.78125 L 7.91875 5.640625 L 8.03125 5.5 L 8.140625 5.36875 L 8.25 5.23125 L 8.359375 5.090625 L 8.46875 4.959375 L 8.58125 4.83125 L 8.690625 4.690625 L 8.8 4.559375 L 8.909375 4.43125 L 9.01875 4.3 L 9.13125 4.16875 L 9.25 4.05 L 9.359375 3.91875 L 9.46875 3.790625 L 9.58125 3.66875 L 9.690625 3.540625 L 9.8 3.41875 L 9.909375 3.3 L 10.01875 3.16875 L 10.13125 3.05 L 10.240625 2.93125 L 10.35 2.809375 L 10.459375 2.690625 L 10.56875 2.56875 L 10.68125 2.459375 L 10.790625 2.340625 L 10.9 2.21875 L 11.009375 2.109375 L 11.11875 1.990625 L 11.23125 1.88125 L 11.340625 1.759375 L 11.559375 1.540625 L 11.66875 1.41875 L 11.78125 1.309375 L 12 1.090625 L 12.21875 1.309375 L 12.33125 1.41875 L 12.440625 1.540625 L 12.659375 1.759375 L 12.76875 1.88125 L 12.88125 1.990625 L 12.990625 2.109375 L 13.1 2.21875 L 13.209375 2.340625 L 13.31875 2.459375 L 13.43125 2.56875 L 13.540625 2.690625 L 13.65 2.809375 L 13.759375 2.93125 L 13.86875 3.05 L 13.98125 3.16875 L 14.090625 3.3 L 14.2 3.41875 L 14.309375 3.540625 L 14.41875 3.66875 L 14.53125 3.790625 L 14.640625 3.91875 L 14.75 4.05 L 14.86875 4.16875 L 14.98125 4.3 L 15.090625 4.43125 L 15.2 4.559375 L 15.309375 4.690625 L 15.41875 4.83125 L 15.53125 4.959375 L 15.640625 5.090625 L 15.75 5.23125 L 15.859375 5.36875 L 15.96875 5.5 L 16.08125 5.640625 L 16.190625 5.78125 L 16.3 5.91875 L 16.409375 6.06875 L 16.51875 6.209375 L 16.63125 6.35 L 17.06875 6.95 L 17.18125 7.1 L 17.4 7.4 L 17.61875 7.71875 L 17.73125 7.88125 L 18.059375 8.359375 L 18.16875 8.53125 L 18.28125 8.7 L 18.390625 8.86875 L 18.5 9.040625 L 18.609375 9.209375 L 18.71875 9.390625 L 18.83125 9.56875 L 18.940625 9.75 L 19.05 9.940625 L 19.159375 10.11875 L 19.26875 10.309375 L 19.38125 10.5 L 19.709375 11.1 L 19.81875 11.309375 L 19.93125 11.509375 L 20.040625 11.73125 L 20.259375 12.16875 L 20.36875 12.390625 L 20.48125 12.61875 L 20.6 12.859375 L 20.709375 13.1 L 20.81875 13.35 L 20.93125 13.609375 L 21.040625 13.86875 L 21.15 14.140625 L 21.259375 14.41875 L 21.36875 14.7 L 21.48125 15 L 21.590625 15.309375 L 21.7 15.640625 L 21.809375 15.96875 L 21.91875 16.33125 L 22.03125 16.709375 L 22.140625 17.109375 L 22.25 17.540625 L 22.359375 18.009375 L 22.46875 18.51875 L 22.58125 19.109375 L 22.690625 19.809375 L 22.8 20.71875 L 22.909375 22.909375 " transform="matrix(1.25,0,0,1.25,0,0)"/>
<path style="fill:none;stroke-width:2.13;stroke-linecap:round;stroke-linejoin:round;stroke:rgb(0%,0%,0%);stroke-opacity:1;stroke-miterlimit:10;" d="M 22.909375 22.909375 L 22.8 22.359375 L 22.690625 22.13125 L 22.58125 21.959375 L 22.46875 21.809375 L 22.359375 21.68125 L 22.25 21.56875 L 22.140625 21.459375 L 22.03125 21.359375 L 21.91875 21.259375 L 21.809375 21.18125 L 21.7 21.090625 L 21.590625 21.009375 L 21.48125 20.93125 L 21.36875 20.859375 L 21.259375 20.790625 L 21.15 20.71875 L 20.93125 20.58125 L 20.81875 20.51875 L 20.6 20.4 L 20.48125 20.340625 L 20.36875 20.28125 L 20.259375 20.21875 L 20.15 20.16875 L 20.040625 20.109375 L 19.93125 20.059375 L 19.81875 20.009375 L 19.38125 19.809375 L 19.26875 19.759375 L 19.159375 19.709375 L 19.05 19.66875 L 18.83125 19.56875 L 18.71875 19.53125 L 18.609375 19.490625 L 18.5 19.440625 L 18.28125 19.359375 L 18.16875 19.309375 L 18.059375 19.26875 L 17.95 19.23125 L 17.73125 19.15 L 17.61875 19.109375 L 17.509375 19.06875 L 17.4 19.03125 L 17.290625 18.990625 L 17.18125 18.959375 L 17.06875 18.91875 L 16.959375 18.88125 L 16.85 18.840625 L 16.740625 18.809375 L 16.63125 18.76875 L 16.51875 18.73125 L 16.409375 18.7 L 16.3 18.659375 L 16.190625 18.63125 L 16.08125 18.590625 L 15.96875 18.559375 L 15.859375 18.51875 L 15.75 18.490625 L 15.640625 18.459375 L 15.53125 18.41875 L 15.41875 18.390625 L 15.309375 18.359375 L 15.2 18.31875 L 15.090625 18.290625 L 14.98125 18.259375 L 14.86875 18.23125 L 14.75 18.190625 L 14.640625 18.159375 L 14.53125 18.13125 L 14.41875 18.1 L 14.309375 18.06875 L 14.2 18.040625 L 14.090625 18.009375 L 13.98125 17.98125 L 13.86875 17.940625 L 13.759375 17.909375 L 13.65 17.88125 L 13.540625 17.85 L 13.43125 17.83125 L 13.31875 17.8 L 13.209375 17.76875 L 13.1 17.740625 L 12.990625 17.709375 L 12.88125 17.68125 L 12.76875 17.65 L 12.659375 17.61875 L 12.55 17.590625 L 12.440625 17.56875 L 12.33125 17.540625 L 12.21875 17.509375 L 12.109375 17.48125 L 12 17.45 L 11.890625 17.48125 L 11.78125 17.509375 L 11.66875 17.540625 L 11.559375 17.56875 L 11.45 17.590625 L 11.340625 17.61875 L 11.23125 17.65 L 11.11875 17.68125 L 11.009375 17.709375 L 10.9 17.740625 L 10.790625 17.76875 L 10.68125 17.8 L 10.56875 17.83125 L 10.459375 17.85 L 10.35 17.88125 L 10.240625 17.909375 L 10.13125 17.940625 L 10.01875 17.98125 L 9.909375 18.009375 L 9.8 18.040625 L 9.690625 18.06875 L 9.58125 18.1 L 9.46875 18.13125 L 9.359375 18.159375 L 9.25 18.190625 L 9.13125 18.23125 L 9.01875 18.259375 L 8.909375 18.290625 L 8.8 18.31875 L 8.690625 18.359375 L 8.58125 18.390625 L 8.46875 18.41875 L 8.359375 18.459375 L 8.25 18.490625 L 8.140625 18.51875 L 8.03125 18.559375 L 7.91875 18.590625 L 7.809375 18.63125 L 7.7 18.659375 L 7.590625 18.7 L 7.48125 18.73125 L 7.36875 18.76875 L 7.259375 18.809375 L 7.15 18.840625 L 7.040625 18.88125 L 6.93125 18.91875 L 6.81875 18.959375 L 6.709375 18.990625 L 6.6 19.03125 L 6.490625 19.06875 L 6.38125 19.109375 L 6.26875 19.15 L 6.05 19.23125 L 5.940625 19.26875 L 5.83125 19.309375 L 5.71875 19.359375 L 5.5 19.440625 L 5.390625 19.490625 L 5.28125 19.53125 L 5.16875 19.56875 L 4.95 19.66875 L 4.840625 19.709375 L 4.73125 19.759375 L 4.61875 19.809375 L 4.18125 20.009375 L 4.06875 20.059375 L 3.959375 20.109375 L 3.85 20.16875 L 3.740625 20.21875 L 3.63125 20.28125 L 3.51875 20.340625 L 3.4 20.4 L 3.18125 20.51875 L 3.06875 20.58125 L 2.85 20.71875 L 2.740625 20.790625 L 2.63125 20.859375 L 2.51875 20.93125 L 2.409375 21.009375 L 2.3 21.090625 L 2.190625 21.18125 L 2.08125 21.259375 L 1.96875 21.359375 L 1.859375 21.459375 L 1.75 21.56875 L 1.640625 21.68125 L 1.53125 21.809375 L 1.41875 21.959375 L 1.309375 22.13125 L 1.2 22.359375 L 1.090625 22.909375 " transform="matrix(1.25,0,0,1.25,0,0)"/>
</g>
</svg>
